<?xml version="1.0" standalone="no"?><!DOCTYPE svg PUBLIC "-//W3C//DTD SVG 1.1//EN" "http://www.w3.org/Graphics/SVG/1.1/DTD/svg11.dtd"><svg t="1608433571402" class="icon" viewBox="0 0 1024 1024" version="1.1" xmlns="http://www.w3.org/2000/svg" p-id="27094" xmlns:xlink="http://www.w3.org/1999/xlink" width="200" height="200"><defs><style type="text/css"></style></defs><path d="M716.48 563.68a22.112 22.112 0 0 0-2.4 10.432c0 8 2.496 13.792 7.84 18.208 5.696 4.672 14.592 7.04 26.464 7.04 12 0 20.928-2.368 26.56-7.04 5.216-4.352 7.744-10.304 7.744-18.208a22.112 22.112 0 0 0-2.4-10.432 30.656 30.656 0 0 0-7.168-8.96 52.16 52.16 0 0 0-11.616-7.584 88.928 88.928 0 0 0-13.12-5.12 94.592 94.592 0 0 0-13.408 5.12 48 48 0 0 0-11.424 7.488 31.744 31.744 0 0 0-7.104 9.056z m57.088-76.768a18.304 18.304 0 0 0 1.92-8.576 16.768 16.768 0 0 0-6.016-13.824c-4.384-3.712-11.488-5.6-21.12-5.6-9.6 0-16.704 1.92-21.12 5.6a16.8 16.8 0 0 0-5.984 13.824c0 3.328 0.64 6.144 1.92 8.544a21.408 21.408 0 0 0 5.6 6.816c2.624 2.112 5.824 4.032 9.568 5.76 3.264 1.44 6.656 2.72 10.08 3.776 3.52-1.056 6.944-2.336 10.112-3.776 3.616-1.696 6.72-3.584 9.472-5.76a21.28 21.28 0 0 0 5.568-6.784z m52.16 65.888c3.2 6.88 4.8 14.912 4.8 23.84 0 11.264-2.56 21.12-7.488 29.216-4.8 7.904-11.328 14.496-19.424 19.52a84.48 84.48 0 0 1-26.368 10.432 136.48 136.48 0 0 1-57.92 0 84.416 84.416 0 0 1-26.176-10.432 58.656 58.656 0 0 1-19.456-19.552 55.392 55.392 0 0 1-7.456-29.184c0-8.864 1.6-16.832 4.768-23.712a64 64 0 0 1 12.032-17.6 76.128 76.128 0 0 1 18.304-13.856 76 76 0 0 1-13.12-11.68c-8-8.928-12.096-20.16-12.096-33.408 0-8.512 2.016-16.448 5.984-23.552 3.84-6.944 9.184-12.864 15.808-17.664 6.336-4.64 13.984-8.32 22.656-10.88 8.576-2.528 17.92-3.808 27.808-3.808 9.856 0 19.2 1.28 27.744 3.808 8.64 2.56 16.288 6.208 22.72 10.88 6.656 4.864 11.936 10.784 15.776 17.664 3.968 7.104 5.984 15.04 5.984 23.552 0 13.44-4.096 24.768-12.128 33.6a76.32 76.32 0 0 1-13.088 11.456l2.048 1.12c6.016 3.392 11.456 7.552 16.224 12.48 4.96 5.12 9.024 11.072 12.064 17.76z m-294.112 10.88a22.336 22.336 0 0 0-2.368 10.432c0 8 2.496 13.792 7.84 18.208 5.696 4.672 14.592 7.04 26.464 7.04 12.032 0 20.96-2.368 26.528-7.04 5.248-4.32 7.808-10.304 7.808-18.208a22.336 22.336 0 0 0-2.432-10.464 30.784 30.784 0 0 0-7.136-8.96 52 52 0 0 0-11.616-7.584 88.64 88.64 0 0 0-13.152-5.088 94.912 94.912 0 0 0-13.376 5.12 48.32 48.32 0 0 0-11.456 7.488 32 32 0 0 0-7.104 9.056z m57.12-76.8a17.856 17.856 0 0 0 1.92-8.544 16.768 16.768 0 0 0-6.016-13.824c-4.384-3.712-11.488-5.6-21.088-5.6-9.632 0-16.736 1.888-21.12 5.568a16.768 16.768 0 0 0-5.984 13.856c0 3.264 0.64 6.144 1.92 8.576a21.44 21.44 0 0 0 5.6 6.816c2.688 2.144 5.824 4 9.536 5.696 3.264 1.472 6.656 2.752 10.08 3.84 3.52-1.088 6.944-2.368 10.144-3.84 3.584-1.664 6.72-3.52 9.408-5.728a21.536 21.536 0 0 0 5.6-6.784z m40.096 48.16c4.96 5.088 9.024 11.072 12.064 17.76 3.2 6.88 4.8 14.912 4.8 23.84 0 11.232-2.56 21.088-7.52 29.216a58.496 58.496 0 0 1-19.36 19.52c-7.808 4.8-16.64 8.32-26.4 10.432a136 136 0 0 1-57.92 0 84.064 84.064 0 0 1-26.176-10.432 58.4 58.4 0 0 1-19.456-19.584 55.136 55.136 0 0 1-7.456-29.152c0-8.96 1.6-16.96 4.8-23.776a64 64 0 0 1 12.032-17.536 75.392 75.392 0 0 1 18.24-13.856 77.088 77.088 0 0 1-13.056-11.648c-8.032-8.96-12.128-20.224-12.128-33.44 0-8.544 2.016-16.448 6.016-23.584 3.84-6.848 9.12-12.8 15.744-17.6 6.4-4.672 14.048-8.32 22.688-10.912 8.576-2.528 17.92-3.808 27.84-3.808 9.856 0 19.2 1.28 27.744 3.808 8.672 2.56 16.32 6.24 22.72 10.88 6.592 4.832 11.904 10.784 15.776 17.632 3.968 7.136 5.952 15.04 5.952 23.584 0 13.44-4.064 24.768-12.16 33.632a75.968 75.968 0 0 1-13.056 11.424l2.048 1.12c5.952 3.328 11.424 7.52 16.224 12.48z m-259.424-0.736a29.888 29.888 0 0 0-10.752 6.464 31.84 31.84 0 0 0-7.104 10.496c-1.76 4.16-2.656 9.056-2.656 14.56 0 11.52 2.752 20 8.192 25.216 5.632 5.44 13.472 8.032 24.032 8.032 5.056 0 9.76-0.768 13.92-2.304a31.104 31.104 0 0 0 10.688-6.368 29.44 29.44 0 0 0 7.04-10.24c1.76-4.16 2.656-9.152 2.656-14.912 0-6.304-0.832-11.616-2.56-15.808a27.136 27.136 0 0 0-6.528-9.824 25.6 25.6 0 0 0-9.792-5.632 43.424 43.424 0 0 0-27.136 0.32z m70.656-24.416c6.88 5.952 12.416 13.536 16.48 22.624 4.064 9.056 6.112 19.808 6.112 31.904s-2.336 22.976-6.976 32.352c-4.608 9.28-10.816 17.184-18.464 23.424a80.448 80.448 0 0 1-25.824 13.984 94.016 94.016 0 0 1-29.376 4.704c-12.16 0-23.36-1.664-33.28-4.96a65.344 65.344 0 0 1-26.304-16.256 72.704 72.704 0 0 1-16.416-27.84c-3.68-10.784-5.536-23.904-5.536-38.944 0-17.024 2.4-33.28 7.136-48.352 4.768-15.296 12.224-29.152 22.144-41.184 10.016-12.128 22.848-22.08 38.208-29.664 15.264-7.52 36.032-12.992 56-14.336l16.672 0.224-10.24 39.168-5.664 0.48a96.64 96.64 0 0 0-30.912 7.52 77.888 77.888 0 0 0-22.72 15.168c-6.144 5.984-11.2 12.992-15.04 20.8 9.504-5.28 21.152-7.936 34.688-7.936 8.768 0 17.536 1.376 26.016 4.096 8.576 2.784 16.416 7.168 23.296 13.024z m-232.896-30.016L192 443.072 276.16 416v221.312H230.496V472.64l-23.36 7.232zM512 64C264.576 64 64 264.608 64 512c0 247.424 200.576 448 448 448s448-200.576 448-448C960 264.64 759.424 64 512 64z" p-id="27095"></path></svg>