<?xml version="1.0" standalone="no"?><!DOCTYPE svg PUBLIC "-//W3C//DTD SVG 1.1//EN" "http://www.w3.org/Graphics/SVG/1.1/DTD/svg11.dtd"><svg t="1601220670012" class="icon" viewBox="0 0 1024 1024" version="1.1" xmlns="http://www.w3.org/2000/svg" p-id="2864" xmlns:xlink="http://www.w3.org/1999/xlink" width="200" height="200"><defs><style type="text/css"></style></defs><path d="M832 160c-35.2 0-64 28.8-64 64s28.8 64 64 64 64-28.8 64-64-28.8-64-64-64" p-id="2865"></path><path d="M320 480h384v-64H320z" p-id="2866"></path><path d="M320 608h256v-64h-256z" p-id="2867"></path><path d="M320 736h256v-64h-256z" p-id="2868"></path><path d="M800 352v512H224V224h96v64h384V96H320v64H192c-19.2 0-32 12.8-32 32v704c0 19.2 12.8 32 32 32h640c19.2 0 32-12.8 32-32V352h-64zM384 160h256v64h-256V160z" p-id="2869"></path></svg>
