<?xml version="1.0" standalone="no"?><!DOCTYPE svg PUBLIC "-//W3C//DTD SVG 1.1//EN" "http://www.w3.org/Graphics/SVG/1.1/DTD/svg11.dtd"><svg t="1601479494955" class="icon" viewBox="0 0 1024 1024" version="1.1" xmlns="http://www.w3.org/2000/svg" p-id="3779" xmlns:xlink="http://www.w3.org/1999/xlink" width="200" height="200"><defs><style type="text/css"></style></defs><path d="M832 708.096v120.864c-157.376-14.24-299.488-80.96-409.888-181.824l69.664-69.696a513.664 513.664 0 0 0 158.176 96.736c19.84 7.552 40.224 13.888 61.152 18.976l16.544-61.76 6.656-24.96L832 632.64v75.456z m42.4-129.984l0.096-0.32-123.616-33.12 0.064-0.128-30.944-8.32a31.936 31.936 0 0 0-33.568 11.36c-2.56 3.296-4.512 7.136-5.696 11.392l-8.256 30.944h0.032l-5.984 22.24a450.112 450.112 0 0 1-129.696-79.744L918.624 150.624l-45.248-45.248L491.68 487.04l-45.056 45.024-69.76 69.76-45.184 45.216-226.304 226.304 45.248 45.248 226.304-226.304c122.08 112.384 280.096 186.304 455.072 200.8 9.952 0.832 19.872 1.504 29.888 2.016a32.224 32.224 0 0 0 34.112-32V608a31.68 31.68 0 0 0-21.6-29.856zM292.8 601.408l45.472-45.504C259.232 453.088 207.392 328.288 195.008 192h196.576l27.2 101.312-23.872 6.368-61.728 16.544c5.152 20.896 11.52 41.28 19.104 61.12a515.008 515.008 0 0 0 57.184 107.36l45.696-45.696a450.144 450.144 0 0 1-40.896-78.272l21.024-5.632v0.096l30.912-8.32a32 32 0 0 0 22.624-39.168l-41.408-154.56-0.768 0.224A31.552 31.552 0 0 0 416 128H160.832C142.336 128 128 143.616 128.864 162.112c0.512 10.016 1.184 19.968 1.984 29.888 12.8 153.888 71.616 294.592 161.92 409.408" p-id="3780"></path></svg>