<?xml version="1.0" standalone="no"?><!DOCTYPE svg PUBLIC "-//W3C//DTD SVG 1.1//EN" "http://www.w3.org/Graphics/SVG/1.1/DTD/svg11.dtd"><svg t="1601307293636" class="icon" viewBox="0 0 1024 1024" version="1.1" xmlns="http://www.w3.org/2000/svg" p-id="6218" xmlns:xlink="http://www.w3.org/1999/xlink" width="200" height="200"><defs><style type="text/css"></style></defs><path d="M704 576c-19.2 0-32 12.8-32 32s12.8 32 32 32 32-12.8 32-32-12.8-32-32-32" p-id="6219"></path><path d="M864 320H192V192h576V128H160c-19.2 0-32 12.8-32 32v704c0 19.2 12.8 32 32 32h704c19.2 0 32-12.8 32-32V352c0-19.2-12.8-32-32-32z m-32 352h-256v-128h256v128z m0-192h-288c-19.2 0-32 12.8-32 32v192c0 19.2 12.8 32 32 32h288v96H192V384h640v96z" p-id="6220"></path></svg>