<?xml version="1.0" standalone="no"?><!DOCTYPE svg PUBLIC "-//W3C//DTD SVG 1.1//EN" "http://www.w3.org/Graphics/SVG/1.1/DTD/svg11.dtd"><svg t="1608433520663" class="icon" viewBox="0 0 1024 1024" version="1.1" xmlns="http://www.w3.org/2000/svg" p-id="24847" xmlns:xlink="http://www.w3.org/1999/xlink" width="200" height="200"><defs><style type="text/css"></style></defs><path d="M355.104 642.304c-21.888-59.52 30.656-106.944 85.344-112.64 46.656-4.928 81.472 18.88 91.744 49.856 34.304 103.68-144.416 151.872-177.088 62.784m93.376-157.76c-43.392 3.584-72.576 12.736-103.04 30.592-24.864 14.592-53.952 38.336-61.184 74.048-16.256 80.32 71.072 118.08 135.232 122.336 74.144 4.992 148.32-21.12 183.552-61.12 12.864-14.624 25.824-36.896 25.728-62.816-0.16-80-100.96-109.568-180.288-103.04" p-id="24848"></path><path d="M450.08 597.248c7.296 12.608 24 3.552 22.528-6.4-1.76-11.584-22.688-9.888-22.528 6.4M409.856 598.88c-38.112 8.864-30.72 63.104 11.264 53.12 30.048-7.136 34.08-63.744-11.264-53.12" p-id="24849"></path><path d="M775.296 491.008c-34.592 3.104-16.544-35.04-16.096-57.984 1.28-66.464-55.488-112.672-111.104-112.672-15.744 0-52.32 10.688-46.688-22.528 2.528-14.656 14.944-14.432 27.36-16.096 93.504-12.48 164.096 51.84 170.656 136.832 2.496 32.096-2.912 70.56-24.128 72.448m-88.576-62.784c-0.864-12.896-11.584-27.84-20.896-32.224-18.336-8.544-46.72 6.272-46.72-19.296 0-18.976 16.48-17.024 25.792-17.696 40.768-3.136 70.88 24.96 75.648 59.52 3.392 24.544-3.648 45.76-17.696 46.72-23.456 1.568-14.688-16.064-16.128-37.024m40.256 165.824c-1.888 15.648-11.36 36.544-20.928 49.888-67.936 95.136-272.864 135.104-400.864 62.784-42.912-24.256-87.328-59.712-80.48-130.4 5.888-60.832 46.784-107.968 86.944-148.096 38.304-38.304 78.656-68.32 133.632-82.112 59.584-14.976 77.216 34.72 61.152 83.712 34.528-2.304 107.712-40.832 140.064-3.232 14.272 16.608 8.8 46.336 0 69.248 40.192 21.984 88.512 32.96 80.48 98.208M512 64C264.576 64 64 264.576 64 512c0 247.456 200.576 448 448 448s448-200.544 448-448c0-247.424-200.576-448-448-448" p-id="24850"></path></svg>