<?xml version="1.0" standalone="no"?><!DOCTYPE svg PUBLIC "-//W3C//DTD SVG 1.1//EN" "http://www.w3.org/Graphics/SVG/1.1/DTD/svg11.dtd"><svg t="1608433568722" class="icon" viewBox="0 0 1024 1024" version="1.1" xmlns="http://www.w3.org/2000/svg" p-id="26954" xmlns:xlink="http://www.w3.org/1999/xlink" width="200" height="200"><defs><style type="text/css"></style></defs><path d="M492.48 372.928l26.752 24.448-13.376 14.464H678.4l0.544 40.064-107.392 0.544v51.744l106.24 1.696v26.144h-105.696l-0.544 93.472c35.584 1.12 47.296-13.888 47.296-13.888l-12.256-24.512 64-37.28 33.92 75.68v-227.616c-40.64-104.64-212.032-25.056-212.032-25.056v0.096zM512 64C264.576 64 64 264.608 64 512c0 247.424 200.576 448 448 448s448-200.576 448-448C960 264.64 759.424 64 512 64zM288.288 276.576a53.44 53.44 0 1 1 0 106.848 53.44 53.44 0 0 1 0-106.88z m54.528 298.304l-77.92 160.256-83.52-53.44 110.24-120.192c15.552-20.032 0-44.512 0-44.512l-81.28-70.112 35.648-48.96s38.976 30.048 81.824 72.32c42.816 42.304 15.008 104.64 15.008 104.64z m459.68 80.096s-6.688 94.624-99.04 92.416c-92.352-2.24-92.416 0-92.416 0h-26.72s-15.552-21.696 0.576-53.984c0 0 33.92-5.6 39.488 13.344h38.976s37.824-7.232 40.608-66.784l-53.44 40.064-19.456-39.52s-70.72 56.768-128.576 52.896h-78.464s-51.2-13.344-53.984-80.704v-52.32h80.16s-8.352 82.368 38.944 78.464l1.12-105.76h-120.224v-26.72h120.224l-0.544-52.864-17.28-0.544-48.96 48.416-32.32-28.928 60.672-60.096-1.664-27.296-76.256 70.112-46.176-46.176s61.184-39.52 81.248-132.48l68.448 17.28-11.136 36.16s298.272-109.056 336.16 81.28v243.744h0.032z" p-id="26955"></path></svg>