<?xml version="1.0" standalone="no"?><!DOCTYPE svg PUBLIC "-//W3C//DTD SVG 1.1//EN" "http://www.w3.org/Graphics/SVG/1.1/DTD/svg11.dtd"><svg t="1608433543010" class="icon" viewBox="0 0 1024 1024" version="1.1" xmlns="http://www.w3.org/2000/svg" p-id="25830" xmlns:xlink="http://www.w3.org/1999/xlink" width="200" height="200"><defs><style type="text/css"></style></defs><path d="M640 512h-32v-64h32a96 96 0 1 0-96-96v320c0 88.224-71.776 160-160 160s-160-71.776-160-160 71.776-160 160-160h32v64h-32a96 96 0 1 0 96 96V352c0-88.224 71.776-160 160-160s160 71.776 160 160-71.776 160-160 160M512 64C264.576 64 64 264.576 64 512s200.576 448 448 448 448-200.576 448-448S759.424 64 512 64" p-id="25831"></path></svg>