<?xml version="1.0" standalone="no"?><!DOCTYPE svg PUBLIC "-//W3C//DTD SVG 1.1//EN" "http://www.w3.org/Graphics/SVG/1.1/DTD/svg11.dtd"><svg t="1608433330148" class="icon" viewBox="0 0 1024 1024" version="1.1" xmlns="http://www.w3.org/2000/svg" p-id="18957" xmlns:xlink="http://www.w3.org/1999/xlink" width="200" height="200"><defs><style type="text/css"></style></defs><path d="M192 64H128v896h768V64H192z m640 832H192V128h640v768z" p-id="18958"></path><path d="M320 224h384v64H320zM320 416h64v64h-64zM480 416h64v64h-64zM640 416h64v64h-64zM320 576h64v64h-64zM480 576h64v64h-64zM640 576h64v64h-64zM320 736h64v64h-64zM480 736h64v64h-64zM640 736h64v64h-64z" p-id="18959"></path></svg>