<?xml version="1.0" standalone="no"?><!DOCTYPE svg PUBLIC "-//W3C//DTD SVG 1.1//EN" "http://www.w3.org/Graphics/SVG/1.1/DTD/svg11.dtd"><svg t="1608433353643" class="icon" viewBox="0 0 1024 1024" version="1.1" xmlns="http://www.w3.org/2000/svg" p-id="19661" xmlns:xlink="http://www.w3.org/1999/xlink" width="200" height="200"><defs><style type="text/css"></style></defs><path d="M896 576c0 17.632-14.336 32-32 32h-64v-192h64c17.664 0 32 14.368 32 32v128z m-448 192c0-35.296 28.704-64 64-64s64 28.704 64 64-28.704 64-64 64-64-28.704-64-64z m-224-160H160c-17.664 0-32-14.368-32-32v-128c0-17.632 14.336-32 32-32h64v192z m640-256h-65.888C782.176 208 660.224 96 512 96c-148.224 0-270.176 112-286.112 256H160c-52.928 0-96 43.072-96 96v128c0 52.928 43.072 96 96 96h128v-288c0-123.52 100.512-224 224-224s224 100.48 224 224v224a223.872 223.872 0 0 1-98.56 185.472A128.128 128.128 0 0 0 512 640c-70.592 0-128 57.408-128 128s57.408 128 128 128c137.024 0 251.456-95.776 280.64-224H864c52.928 0 96-43.072 96-96v-128c0-52.928-43.072-96-96-96z" p-id="19662"></path></svg>