<?xml version="1.0" standalone="no"?><!DOCTYPE svg PUBLIC "-//W3C//DTD SVG 1.1//EN" "http://www.w3.org/Graphics/SVG/1.1/DTD/svg11.dtd"><svg t="1608433196890" class="icon" viewBox="0 0 1024 1024" version="1.1" xmlns="http://www.w3.org/2000/svg" p-id="14877" xmlns:xlink="http://www.w3.org/1999/xlink" width="200" height="200"><defs><style type="text/css"></style></defs><path d="M160 192h608V128H128a32 32 0 0 0-32 32v576a32 32 0 0 0 32 32h288v-64H160V192zM864 704h-256c-8.832 0-16.832 3.584-22.656 9.376l-159.968 160 45.248 45.248L621.248 768H896a32 32 0 0 0 32-32V288h-64v416z" p-id="14878"></path><path d="M464 448a48 48 0 1 0 95.968 0.032A48 48 0 0 0 464 448M240 448a48 48 0 1 0 95.968 0.032A48 48 0 0 0 240 448M688 448a48 48 0 1 0 95.968 0.032A48 48 0 0 0 688 448M896 96a64 64 0 1 0 0.032 128.032A64 64 0 0 0 896 96" p-id="14879"></path></svg>