<?xml version="1.0" standalone="no"?><!DOCTYPE svg PUBLIC "-//W3C//DTD SVG 1.1//EN" "http://www.w3.org/Graphics/SVG/1.1/DTD/svg11.dtd"><svg t="1608433268902" class="icon" viewBox="0 0 1024 1024" version="1.1" xmlns="http://www.w3.org/2000/svg" p-id="17129" xmlns:xlink="http://www.w3.org/1999/xlink" width="200" height="200"><defs><style type="text/css"></style></defs><path d="M512 896C299.936 896 128 724.064 128 512S299.936 128 512 128s384 171.936 384 384-171.936 384-384 384m0-832C264.96 64 64 264.96 64 512s200.96 448 448 448 448-200.96 448-448S759.04 64 512 64" p-id="17130"></path><path d="M416 345.728L704 512l-288 166.272V345.728zM800 512c0-11.84-6.72-21.728-16.256-27.264l0.256-0.448-384-221.728-0.256 0.48A30.912 30.912 0 0 0 384 258.304a32 32 0 0 0-32 32v443.392a32 32 0 0 0 32 32 30.912 30.912 0 0 0 15.744-4.736l0.256 0.448 384-221.696-0.256-0.448A31.584 31.584 0 0 0 800 512z" p-id="17131"></path></svg>